<svg xmlns="http://www.w3.org/2000/svg" xmlns:xlink="http://www.w3.org/1999/xlink" width="275" zoomAndPan="magnify" viewBox="0 0 206.25 187.499992" height="250" preserveAspectRatio="xMidYMid meet" version="1.0"><defs><g/><clipPath id="id1"><path d="M 76.273438 61.582031 L 129.296875 61.582031 L 129.296875 87.199219 L 76.273438 87.199219 Z M 76.273438 61.582031 " clip-rule="nonzero"/></clipPath><clipPath id="id2"><path d="M 76.273438 30.40625 L 129.296875 30.40625 L 129.296875 56 L 76.273438 56 Z M 76.273438 30.40625 " clip-rule="nonzero"/></clipPath></defs><path fill="rgb(1.959229%, 5.099487%, 9.408569%)" d="M 99.253906 50.839844 L 100.800781 50.839844 L 99.191406 54.398438 L 96.101562 54.398438 Z M 119.984375 59.191406 L 120.769531 50.519531 C 120.796875 50.242188 120.691406 49.964844 120.503906 49.757812 C 120.316406 49.550781 120.042969 49.433594 119.761719 49.433594 C 116.472656 49.433594 113.570312 51.402344 112.324219 54.398438 L 101.367188 54.398438 L 103.246094 50.257812 C 103.382812 49.949219 103.359375 49.589844 103.175781 49.308594 C 102.992188 49.023438 102.679688 48.851562 102.34375 48.851562 L 98.808594 48.851562 C 98.527344 48.851562 98.257812 48.972656 98.070312 49.183594 L 93.449219 54.398438 L 89.539062 54.398438 C 85.9375 54.398438 82.695312 56.539062 81.277344 59.855469 C 80.988281 60.53125 81.054688 61.304688 81.460938 61.921875 C 81.871094 62.546875 82.558594 62.917969 83.300781 62.917969 L 90.125 62.917969 C 90.671875 62.917969 91.113281 62.472656 91.113281 61.925781 C 91.113281 61.375 90.671875 60.929688 90.125 60.929688 L 83.300781 60.929688 C 83.199219 60.929688 83.140625 60.867188 83.117188 60.828125 C 83.078125 60.765625 83.070312 60.703125 83.097656 60.640625 C 84.203125 58.058594 86.734375 56.386719 89.539062 56.386719 L 99.820312 56.386719 C 99.824219 56.386719 99.824219 56.386719 99.828125 56.386719 C 99.828125 56.386719 99.832031 56.386719 99.832031 56.386719 L 116.226562 56.386719 C 116.773438 56.386719 117.21875 55.941406 117.21875 55.394531 C 117.21875 54.84375 116.773438 54.398438 116.226562 54.398438 L 114.539062 54.398438 C 115.4375 52.886719 116.941406 51.832031 118.6875 51.519531 L 118.011719 59.011719 C 117.910156 60.105469 117.011719 60.929688 115.917969 60.929688 L 102.832031 60.929688 C 102.285156 60.929688 101.84375 61.375 101.84375 61.925781 C 101.84375 62.472656 102.285156 62.917969 102.832031 62.917969 L 115.917969 62.917969 C 118.042969 62.917969 119.792969 61.316406 119.984375 59.191406 " fill-opacity="1" fill-rule="nonzero"/><path fill="rgb(1.959229%, 5.099487%, 9.408569%)" d="M 100.835938 67.332031 L 99.277344 67.332031 L 93.253906 60.015625 L 97.695312 60.015625 Z M 114.074219 60.015625 C 114.621094 60.015625 115.066406 59.574219 115.066406 59.023438 C 115.066406 58.472656 114.621094 58.027344 114.074219 58.027344 L 91.15625 58.027344 C 91.152344 58.027344 91.148438 58.027344 91.144531 58.027344 L 89.519531 58.027344 C 88.972656 58.027344 88.527344 58.472656 88.527344 59.023438 C 88.527344 59.574219 88.972656 60.015625 89.519531 60.015625 L 90.683594 60.015625 L 98.046875 68.957031 C 98.234375 69.1875 98.515625 69.320312 98.808594 69.320312 L 102.34375 69.320312 C 102.675781 69.320312 102.988281 69.152344 103.171875 68.871094 C 103.351562 68.589844 103.382812 68.238281 103.253906 67.929688 L 99.851562 60.015625 L 114.074219 60.015625 " fill-opacity="1" fill-rule="nonzero"/><g clip-path="url(#id1)"><path fill="rgb(1.959229%, 5.099487%, 9.408569%)" d="M 111.851562 83.433594 C 113.511719 80.714844 114.851562 77.25 115.773438 73.28125 C 119.644531 72.347656 123.070312 71.003906 125.761719 69.332031 C 123.273438 75.75 118.175781 80.875 111.851562 83.433594 Z M 79.691406 69.316406 C 82.433594 71.027344 85.933594 72.390625 89.898438 73.328125 C 90.839844 77.34375 92.203125 80.839844 93.894531 83.570312 C 87.414062 81.070312 82.203125 75.894531 79.691406 69.316406 Z M 101.746094 74.753906 L 101.746094 85.1875 C 101.625 85.183594 101.507812 85.179688 101.386719 85.171875 C 101.328125 85.167969 101.265625 85.167969 101.207031 85.164062 C 101.023438 85.152344 100.839844 85.136719 100.65625 85.121094 C 100.621094 85.121094 100.582031 85.117188 100.546875 85.113281 C 100.082031 85.070312 99.621094 85.019531 99.160156 84.949219 C 99.148438 84.949219 99.136719 84.945312 99.121094 84.945312 C 98.910156 84.914062 98.695312 84.878906 98.484375 84.839844 C 98.457031 84.835938 98.425781 84.832031 98.394531 84.824219 C 98.183594 84.789062 97.976562 84.746094 97.765625 84.707031 C 97.75 84.703125 97.734375 84.699219 97.71875 84.695312 C 97.488281 84.648438 97.257812 84.597656 97.027344 84.542969 C 94.917969 82.027344 93.203125 78.296875 92.050781 73.785156 C 95.101562 74.363281 98.371094 74.699219 101.746094 74.753906 Z M 113.621094 73.746094 C 112.480469 78.230469 110.78125 81.945312 108.695312 84.46875 C 107.089844 84.875 105.429688 85.121094 103.726562 85.191406 L 103.726562 74.753906 C 107.175781 74.699219 110.515625 74.347656 113.621094 73.746094 Z M 128.390625 61.664062 C 127.839844 61.617188 127.363281 62.023438 127.320312 62.570312 C 127.214844 63.800781 127.019531 65.007812 126.738281 66.179688 C 124.238281 68.292969 120.574219 69.988281 116.226562 71.128906 C 116.296875 70.753906 116.363281 70.375 116.425781 69.988281 C 116.515625 69.449219 116.148438 68.9375 115.609375 68.847656 C 115.078125 68.757812 114.558594 69.125 114.46875 69.667969 C 114.359375 70.332031 114.238281 70.988281 114.105469 71.628906 C 110.894531 72.308594 107.378906 72.703125 103.726562 72.765625 L 103.726562 71.304688 C 103.726562 70.753906 103.285156 70.308594 102.738281 70.308594 C 102.1875 70.308594 101.746094 70.753906 101.746094 71.304688 L 101.746094 72.765625 C 98.171875 72.703125 94.726562 72.324219 91.566406 71.671875 C 91.429688 71.015625 91.304688 70.347656 91.195312 69.664062 C 91.105469 69.125 90.59375 68.753906 90.054688 68.847656 C 89.515625 68.9375 89.148438 69.449219 89.238281 69.992188 C 89.304688 70.390625 89.375 70.789062 89.449219 71.179688 C 85.007812 70.039062 81.265625 68.320312 78.726562 66.175781 C 78.519531 65.296875 78.359375 64.394531 78.25 63.480469 C 78.183594 62.933594 77.691406 62.546875 77.144531 62.613281 C 76.601562 62.679688 76.214844 63.175781 76.28125 63.71875 C 77.632812 74.878906 85.761719 83.75 96.226562 86.390625 C 96.234375 86.394531 96.238281 86.394531 96.246094 86.398438 C 96.277344 86.40625 96.308594 86.414062 96.34375 86.421875 C 96.550781 86.472656 96.761719 86.523438 96.976562 86.570312 C 97.007812 86.578125 97.039062 86.585938 97.074219 86.589844 C 97.582031 86.703125 98.097656 86.796875 98.617188 86.878906 C 98.644531 86.882812 98.675781 86.886719 98.703125 86.894531 C 98.941406 86.929688 99.183594 86.960938 99.425781 86.992188 C 99.445312 86.996094 99.464844 87 99.484375 87 C 99.996094 87.0625 100.507812 87.109375 101.027344 87.144531 C 101.085938 87.148438 101.144531 87.152344 101.203125 87.15625 C 101.398438 87.164062 101.59375 87.175781 101.789062 87.183594 C 101.855469 87.183594 101.921875 87.1875 101.988281 87.1875 C 102.238281 87.195312 102.488281 87.199219 102.738281 87.199219 C 102.789062 87.199219 102.839844 87.199219 102.890625 87.199219 C 102.902344 87.199219 102.914062 87.199219 102.925781 87.199219 C 105.113281 87.199219 107.296875 86.929688 109.417969 86.398438 C 109.535156 86.367188 109.648438 86.3125 109.746094 86.246094 C 118.886719 83.707031 126.195312 76.347656 128.570312 67.035156 C 128.585938 66.984375 128.597656 66.9375 128.605469 66.886719 C 128.941406 65.542969 129.175781 64.15625 129.292969 62.738281 C 129.339844 62.191406 128.933594 61.707031 128.390625 61.664062 " fill-opacity="1" fill-rule="nonzero"/></g><g clip-path="url(#id2)"><path fill="rgb(1.959229%, 5.099487%, 9.408569%)" d="M 93.722656 34.171875 C 92.0625 36.890625 90.71875 40.359375 89.796875 44.328125 C 85.925781 45.257812 82.503906 46.601562 79.8125 48.277344 C 82.296875 41.855469 87.394531 36.730469 93.722656 34.171875 Z M 125.878906 48.292969 C 123.136719 46.582031 119.636719 45.214844 115.671875 44.28125 C 114.730469 40.265625 113.367188 36.765625 111.675781 34.039062 C 118.160156 36.539062 123.371094 41.714844 125.878906 48.292969 Z M 103.824219 42.855469 L 103.824219 32.417969 C 103.945312 32.421875 104.066406 32.429688 104.1875 32.433594 C 104.246094 32.4375 104.300781 32.441406 104.359375 32.445312 C 104.546875 32.457031 104.738281 32.46875 104.925781 32.484375 C 104.957031 32.488281 104.988281 32.492188 105.019531 32.492188 C 105.488281 32.535156 105.953125 32.589844 106.417969 32.65625 C 106.421875 32.660156 106.425781 32.660156 106.429688 32.660156 C 106.652344 32.691406 106.875 32.730469 107.097656 32.765625 C 107.121094 32.773438 107.140625 32.777344 107.164062 32.78125 C 107.382812 32.820312 107.601562 32.859375 107.820312 32.90625 C 107.828125 32.90625 107.835938 32.910156 107.84375 32.910156 C 108.078125 32.957031 108.308594 33.011719 108.542969 33.066406 C 110.652344 35.582031 112.367188 39.308594 113.519531 43.820312 C 110.46875 43.242188 107.199219 42.910156 103.824219 42.855469 Z M 91.949219 43.859375 C 93.089844 39.375 94.789062 35.664062 96.875 33.140625 C 98.480469 32.734375 100.140625 32.488281 101.84375 32.417969 L 101.84375 42.855469 C 98.394531 42.910156 95.054688 43.257812 91.949219 43.859375 Z M 77.179688 55.945312 C 77.210938 55.949219 77.238281 55.949219 77.265625 55.949219 C 77.773438 55.949219 78.207031 55.558594 78.253906 55.039062 C 78.355469 53.804688 78.550781 52.601562 78.832031 51.425781 C 81.332031 49.316406 84.996094 47.621094 89.34375 46.476562 C 89.273438 46.855469 89.207031 47.234375 89.144531 47.617188 C 89.054688 48.160156 89.421875 48.671875 89.960938 48.761719 C 90.015625 48.769531 90.070312 48.773438 90.125 48.773438 C 90.601562 48.773438 91.019531 48.429688 91.101562 47.941406 C 91.210938 47.273438 91.332031 46.621094 91.464844 45.976562 C 94.679688 45.300781 98.191406 44.902344 101.84375 44.84375 L 101.84375 46.304688 C 101.84375 46.851562 102.285156 47.296875 102.832031 47.296875 C 103.382812 47.296875 103.824219 46.851562 103.824219 46.304688 L 103.824219 44.84375 C 107.398438 44.902344 110.847656 45.28125 114.007812 45.9375 C 114.140625 46.589844 114.265625 47.257812 114.378906 47.941406 C 114.457031 48.429688 114.878906 48.773438 115.355469 48.773438 C 115.40625 48.773438 115.460938 48.769531 115.515625 48.761719 C 116.058594 48.671875 116.421875 48.160156 116.332031 47.617188 C 116.265625 47.214844 116.195312 46.820312 116.125 46.425781 C 120.5625 47.570312 124.304688 49.285156 126.84375 51.433594 C 127.050781 52.3125 127.210938 53.210938 127.324219 54.128906 C 127.390625 54.675781 127.882812 55.0625 128.425781 54.996094 C 128.96875 54.929688 129.355469 54.433594 129.292969 53.886719 C 127.9375 42.726562 119.804688 33.855469 109.339844 31.214844 C 109.335938 31.214844 109.332031 31.210938 109.328125 31.210938 C 109.300781 31.203125 109.277344 31.199219 109.253906 31.191406 C 109.023438 31.136719 108.792969 31.082031 108.5625 31.03125 C 108.546875 31.027344 108.527344 31.023438 108.511719 31.019531 C 107.992188 30.90625 107.46875 30.808594 106.941406 30.726562 C 106.921875 30.722656 106.902344 30.71875 106.882812 30.71875 C 106.632812 30.679688 106.382812 30.644531 106.128906 30.613281 C 106.117188 30.609375 106.105469 30.609375 106.09375 30.609375 C 105.578125 30.542969 105.0625 30.496094 104.539062 30.460938 C 104.484375 30.460938 104.425781 30.457031 104.371094 30.453125 C 104.171875 30.441406 103.976562 30.433594 103.78125 30.425781 C 103.714844 30.421875 103.648438 30.421875 103.582031 30.417969 C 103.332031 30.410156 103.085938 30.40625 102.832031 30.40625 C 102.78125 30.40625 102.730469 30.410156 102.679688 30.410156 C 102.667969 30.410156 102.65625 30.40625 102.644531 30.40625 C 100.457031 30.40625 98.273438 30.675781 96.152344 31.210938 C 96.035156 31.238281 95.925781 31.292969 95.824219 31.363281 C 86.6875 33.898438 79.375 41.257812 77 50.570312 C 76.984375 50.621094 76.972656 50.671875 76.964844 50.722656 C 76.628906 52.066406 76.394531 53.453125 76.277344 54.871094 C 76.230469 55.417969 76.636719 55.898438 77.179688 55.945312 " fill-opacity="1" fill-rule="nonzero"/></g><g fill="rgb(94.898987%, 79.60968%, 7.449341%)" fill-opacity="1"><g transform="translate(19.769126, 135.957214)"><g><path d="M 19.078125 -23.765625 L 12.53125 -23.765625 L 12.53125 0 L 7.28125 0 L 7.28125 -23.765625 L 0.734375 -23.765625 L 0.734375 -28.359375 L 19.078125 -28.359375 Z M 19.078125 -23.765625 "/></g></g></g><g fill="rgb(94.898987%, 79.60968%, 7.449341%)" fill-opacity="1"><g transform="translate(40.391321, 135.957214)"><g><path d="M 15.875 0 L 8.578125 -10.25 L 8.578125 0 L 3.421875 0 L 3.421875 -28.359375 L 11.3125 -28.359375 C 18.039062 -28.359375 21.40625 -25.347656 21.40625 -19.328125 C 21.40625 -17.984375 21.1875 -16.660156 20.75 -15.359375 C 20.3125 -14.066406 19.601562 -12.921875 18.625 -11.921875 C 17.644531 -10.921875 16.382812 -10.226562 14.84375 -9.84375 L 22.171875 0 Z M 10.734375 -12.8125 C 11.890625 -12.8125 12.878906 -13.085938 13.703125 -13.640625 C 14.523438 -14.191406 15.144531 -14.921875 15.5625 -15.828125 C 15.976562 -16.742188 16.1875 -17.75 16.1875 -18.84375 C 16.1875 -20.707031 15.753906 -22.082031 14.890625 -22.96875 C 14.035156 -23.851562 12.613281 -24.296875 10.625 -24.296875 L 8.578125 -24.296875 L 8.578125 -12.8125 Z M 10.734375 -12.8125 "/></g></g></g><g fill="rgb(94.898987%, 79.60968%, 7.449341%)" fill-opacity="1"><g transform="translate(64.674208, 135.957214)"><g><path d="M 16.640625 -4.109375 L 6.515625 -4.109375 L 5 0 L -0.6875 0 L 11.3125 -28.84375 L 11.71875 -28.84375 L 23.765625 0 L 18.234375 0 Z M 15.140625 -8.0625 L 12.171875 -15.78125 L 11.46875 -18.0625 L 10.828125 -15.78125 L 7.96875 -8.0625 Z M 15.140625 -8.0625 "/></g></g></g><g fill="rgb(94.898987%, 79.60968%, 7.449341%)" fill-opacity="1"><g transform="translate(88.550357, 135.957214)"><g><path d="M 22.75 -28.359375 L 11.515625 0.140625 L 10.859375 0.140625 L -0.40625 -28.359375 L 5.25 -28.359375 L 9.71875 -15.875 L 11.296875 -11.125 L 12.859375 -15.875 L 17.171875 -28.359375 Z M 22.75 -28.359375 "/></g></g></g><g fill="rgb(94.898987%, 79.60968%, 7.449341%)" fill-opacity="1"><g transform="translate(111.69439, 135.957214)"><g><path d="M 18.921875 -4.59375 L 18.921875 0 L 3.296875 0 L 3.296875 -28.359375 L 18.109375 -28.359375 L 18.109375 -23.921875 L 8.375 -23.921875 L 8.375 -17.296875 L 16.109375 -17.296875 L 16.109375 -12.984375 L 8.375 -12.984375 L 8.375 -4.59375 Z M 18.921875 -4.59375 "/></g></g></g><g fill="rgb(94.898987%, 79.60968%, 7.449341%)" fill-opacity="1"><g transform="translate(133.089399, 135.957214)"><g><path d="M 17.046875 -4.46875 L 17.046875 0 L 3.421875 0 L 3.421875 -28.359375 L 8.578125 -28.359375 L 8.578125 -4.46875 Z M 17.046875 -4.46875 "/></g></g></g><g fill="rgb(6.269836%, 32.548523%, 71.759033%)" fill-opacity="1"><g transform="translate(151.185935, 135.957214)"><g><path d="M 8.21875 0 L 5.296875 0 L 5.296875 -25.71875 L 2.609375 -25.796875 L 2.609375 -28.484375 L 8.21875 -28.484375 Z M 8.21875 0 "/></g></g></g><g fill="rgb(6.269836%, 32.548523%, 71.759033%)" fill-opacity="1"><g transform="translate(163.347859, 135.957214)"><g><path d="M 19.65625 -20.59375 L 19.65625 -7.53125 C 19.65625 -4.789062 18.816406 -2.773438 17.140625 -1.484375 C 15.472656 -0.191406 13.472656 0.453125 11.140625 0.453125 C 8.816406 0.453125 6.804688 -0.191406 5.109375 -1.484375 C 3.410156 -2.773438 2.5625 -4.789062 2.5625 -7.53125 L 2.5625 -20.625 C 2.5625 -23.414062 3.328125 -25.53125 4.859375 -26.96875 C 6.390625 -28.40625 8.5 -29.125 11.1875 -29.125 C 13.875 -29.125 15.957031 -28.363281 17.4375 -26.84375 C 18.914062 -25.332031 19.65625 -23.25 19.65625 -20.59375 Z M 16.71875 -7.859375 L 16.71875 -20.421875 C 16.71875 -22.296875 16.234375 -23.71875 15.265625 -24.6875 C 14.304688 -25.664062 12.921875 -26.15625 11.109375 -26.15625 C 7.367188 -26.15625 5.5 -24.242188 5.5 -20.421875 L 5.5 -7.765625 C 5.5 -6.035156 6.007812 -4.710938 7.03125 -3.796875 C 8.0625 -2.890625 9.414062 -2.4375 11.09375 -2.4375 C 12.78125 -2.4375 14.140625 -2.890625 15.171875 -3.796875 C 16.203125 -4.710938 16.71875 -6.066406 16.71875 -7.859375 Z M 16.71875 -7.859375 "/></g></g></g></svg>