<svg xmlns="http://www.w3.org/2000/svg" xmlns:xlink="http://www.w3.org/1999/xlink" width="75" zoomAndPan="magnify" viewBox="0 0 56.25 48.749998" height="65" preserveAspectRatio="xMidYMid meet" version="1.0"><defs><g/><clipPath id="id1"><path d="M 20.601562 15.738281 L 34.660156 15.738281 L 34.660156 22.75 L 20.601562 22.75 Z M 20.601562 15.738281 " clip-rule="nonzero"/></clipPath><clipPath id="id2"><path d="M 20.601562 7.207031 L 34.660156 7.207031 L 34.660156 14.21875 L 20.601562 14.21875 Z M 20.601562 7.207031 " clip-rule="nonzero"/></clipPath></defs><path fill="rgb(1.959229%, 5.099487%, 9.408569%)" d="M 26.695312 12.800781 L 27.105469 12.800781 L 26.675781 13.773438 L 25.859375 13.773438 Z M 32.1875 15.085938 L 32.398438 12.714844 C 32.40625 12.636719 32.378906 12.5625 32.328125 12.503906 C 32.277344 12.449219 32.203125 12.417969 32.128906 12.417969 C 31.257812 12.417969 30.488281 12.953125 30.15625 13.773438 L 27.253906 13.773438 L 27.75 12.640625 C 27.789062 12.558594 27.78125 12.460938 27.734375 12.382812 C 27.683594 12.304688 27.601562 12.257812 27.511719 12.257812 L 26.574219 12.257812 C 26.5 12.257812 26.429688 12.289062 26.378906 12.347656 L 25.15625 13.773438 L 24.117188 13.773438 C 23.164062 13.773438 22.304688 14.359375 21.925781 15.269531 C 21.851562 15.453125 21.867188 15.664062 21.976562 15.832031 C 22.085938 16.003906 22.265625 16.105469 22.464844 16.105469 L 24.273438 16.105469 C 24.417969 16.105469 24.535156 15.984375 24.535156 15.835938 C 24.535156 15.683594 24.417969 15.5625 24.273438 15.5625 L 22.464844 15.5625 C 22.4375 15.5625 22.421875 15.542969 22.414062 15.535156 C 22.40625 15.515625 22.402344 15.5 22.410156 15.484375 C 22.703125 14.777344 23.375 14.320312 24.117188 14.320312 L 26.84375 14.320312 C 26.847656 14.320312 26.847656 14.320312 26.847656 14.320312 L 31.191406 14.320312 C 31.339844 14.320312 31.457031 14.195312 31.457031 14.046875 C 31.457031 13.894531 31.339844 13.773438 31.191406 13.773438 L 30.746094 13.773438 C 30.984375 13.359375 31.382812 13.074219 31.847656 12.988281 L 31.664062 15.035156 C 31.640625 15.335938 31.402344 15.5625 31.109375 15.5625 L 27.640625 15.5625 C 27.496094 15.5625 27.378906 15.683594 27.378906 15.835938 C 27.378906 15.984375 27.496094 16.105469 27.640625 16.105469 L 31.109375 16.105469 C 31.675781 16.105469 32.136719 15.667969 32.1875 15.085938 " fill-opacity="1" fill-rule="nonzero"/><path fill="rgb(1.959229%, 5.099487%, 9.408569%)" d="M 27.113281 17.3125 L 26.699219 17.3125 L 25.101562 15.3125 L 26.28125 15.3125 Z M 30.621094 15.3125 C 30.765625 15.3125 30.886719 15.191406 30.886719 15.039062 C 30.886719 14.890625 30.765625 14.769531 30.621094 14.769531 L 24.546875 14.769531 C 24.546875 14.769531 24.542969 14.769531 24.542969 14.769531 L 24.113281 14.769531 C 23.96875 14.769531 23.851562 14.890625 23.851562 15.039062 C 23.851562 15.191406 23.96875 15.3125 24.113281 15.3125 L 24.421875 15.3125 L 26.371094 17.757812 C 26.421875 17.820312 26.496094 17.859375 26.574219 17.859375 L 27.511719 17.859375 C 27.601562 17.859375 27.683594 17.8125 27.730469 17.734375 C 27.78125 17.660156 27.789062 17.5625 27.753906 17.476562 L 26.851562 15.3125 L 30.621094 15.3125 " fill-opacity="1" fill-rule="nonzero"/><g clip-path="url(#id1)"><path fill="rgb(1.959229%, 5.099487%, 9.408569%)" d="M 30.03125 21.722656 C 30.472656 20.976562 30.828125 20.027344 31.074219 18.941406 C 32.101562 18.6875 33.007812 18.320312 33.71875 17.859375 C 33.0625 19.617188 31.710938 21.019531 30.03125 21.722656 Z M 21.507812 17.855469 C 22.234375 18.324219 23.164062 18.699219 24.214844 18.953125 C 24.460938 20.054688 24.824219 21.011719 25.273438 21.757812 C 23.554688 21.074219 22.171875 19.65625 21.507812 17.855469 Z M 27.355469 19.34375 L 27.355469 22.199219 C 27.320312 22.199219 27.289062 22.199219 27.257812 22.195312 C 27.242188 22.195312 27.226562 22.195312 27.210938 22.195312 C 27.164062 22.191406 27.113281 22.1875 27.066406 22.183594 C 27.054688 22.183594 27.046875 22.179688 27.035156 22.179688 C 26.914062 22.167969 26.789062 22.15625 26.667969 22.136719 C 26.664062 22.136719 26.660156 22.136719 26.65625 22.132812 C 26.601562 22.125 26.546875 22.117188 26.488281 22.105469 C 26.480469 22.105469 26.472656 22.101562 26.464844 22.101562 C 26.410156 22.089844 26.355469 22.082031 26.300781 22.070312 C 26.292969 22.066406 26.289062 22.066406 26.285156 22.066406 C 26.226562 22.054688 26.164062 22.039062 26.101562 22.023438 C 25.542969 21.335938 25.089844 20.316406 24.785156 19.082031 C 25.59375 19.238281 26.460938 19.332031 27.355469 19.34375 Z M 30.503906 19.070312 C 30.199219 20.296875 29.75 21.3125 29.195312 22.003906 C 28.769531 22.113281 28.332031 22.183594 27.878906 22.203125 L 27.878906 19.34375 C 28.792969 19.328125 29.679688 19.234375 30.503906 19.070312 Z M 34.417969 15.761719 C 34.273438 15.75 34.144531 15.859375 34.132812 16.011719 C 34.105469 16.347656 34.054688 16.675781 33.980469 17 C 33.316406 17.578125 32.347656 18.039062 31.191406 18.351562 C 31.210938 18.25 31.230469 18.148438 31.246094 18.042969 C 31.269531 17.894531 31.171875 17.753906 31.027344 17.730469 C 30.886719 17.703125 30.75 17.804688 30.726562 17.953125 C 30.699219 18.136719 30.667969 18.316406 30.632812 18.488281 C 29.777344 18.675781 28.847656 18.785156 27.878906 18.800781 L 27.878906 18.402344 C 27.878906 18.25 27.761719 18.128906 27.617188 18.128906 C 27.472656 18.128906 27.355469 18.25 27.355469 18.402344 L 27.355469 18.800781 C 26.40625 18.785156 25.492188 18.679688 24.65625 18.5 C 24.617188 18.320312 24.585938 18.140625 24.554688 17.953125 C 24.53125 17.804688 24.398438 17.703125 24.253906 17.730469 C 24.109375 17.753906 24.015625 17.894531 24.039062 18.042969 C 24.054688 18.152344 24.074219 18.261719 24.09375 18.367188 C 22.914062 18.054688 21.925781 17.585938 21.25 16.996094 C 21.195312 16.757812 21.152344 16.511719 21.125 16.261719 C 21.105469 16.109375 20.976562 16.003906 20.832031 16.023438 C 20.6875 16.039062 20.585938 16.175781 20.601562 16.324219 C 20.960938 19.378906 23.117188 21.808594 25.890625 22.53125 C 25.890625 22.53125 25.894531 22.53125 25.894531 22.53125 C 25.902344 22.535156 25.914062 22.535156 25.921875 22.539062 C 25.976562 22.550781 26.03125 22.566406 26.089844 22.578125 C 26.097656 22.582031 26.105469 22.582031 26.117188 22.585938 C 26.25 22.617188 26.386719 22.640625 26.523438 22.664062 C 26.53125 22.664062 26.539062 22.667969 26.546875 22.667969 C 26.609375 22.675781 26.675781 22.6875 26.738281 22.695312 C 26.742188 22.695312 26.75 22.695312 26.753906 22.695312 C 26.890625 22.714844 27.027344 22.726562 27.164062 22.738281 C 27.179688 22.738281 27.195312 22.738281 27.210938 22.738281 C 27.261719 22.742188 27.3125 22.746094 27.367188 22.746094 C 27.382812 22.746094 27.402344 22.746094 27.417969 22.75 C 27.484375 22.75 27.550781 22.75 27.617188 22.75 C 27.628906 22.75 27.644531 22.75 27.65625 22.75 C 27.660156 22.75 27.664062 22.75 27.667969 22.75 C 28.246094 22.75 28.824219 22.675781 29.386719 22.53125 C 29.417969 22.523438 29.449219 22.507812 29.476562 22.488281 C 31.898438 21.796875 33.835938 19.78125 34.464844 17.234375 C 34.46875 17.21875 34.472656 17.207031 34.476562 17.191406 C 34.5625 16.824219 34.625 16.445312 34.65625 16.058594 C 34.667969 15.90625 34.5625 15.773438 34.417969 15.761719 " fill-opacity="1" fill-rule="nonzero"/></g><g clip-path="url(#id2)"><path fill="rgb(1.959229%, 5.099487%, 9.408569%)" d="M 25.226562 8.238281 C 24.785156 8.984375 24.429688 9.933594 24.1875 11.019531 C 23.160156 11.273438 22.253906 11.640625 21.539062 12.097656 C 22.199219 10.34375 23.550781 8.9375 25.226562 8.238281 Z M 33.753906 12.101562 C 33.027344 11.636719 32.097656 11.261719 31.046875 11.003906 C 30.796875 9.90625 30.433594 8.949219 29.984375 8.203125 C 31.707031 8.886719 33.085938 10.304688 33.753906 12.101562 Z M 27.90625 10.613281 L 27.90625 7.757812 C 27.9375 7.761719 27.96875 7.761719 28 7.761719 C 28.015625 7.765625 28.03125 7.765625 28.046875 7.765625 C 28.097656 7.769531 28.148438 7.773438 28.195312 7.777344 C 28.203125 7.777344 28.214844 7.777344 28.222656 7.78125 C 28.347656 7.792969 28.46875 7.804688 28.59375 7.824219 C 28.59375 7.824219 28.59375 7.824219 28.597656 7.824219 C 28.65625 7.835938 28.714844 7.84375 28.773438 7.855469 C 28.777344 7.855469 28.785156 7.855469 28.789062 7.859375 C 28.847656 7.867188 28.90625 7.878906 28.964844 7.894531 C 28.96875 7.894531 28.96875 7.894531 28.972656 7.894531 C 29.03125 7.90625 29.09375 7.921875 29.15625 7.9375 C 29.714844 8.625 30.171875 9.644531 30.476562 10.878906 C 29.667969 10.722656 28.800781 10.628906 27.90625 10.613281 Z M 24.757812 10.890625 C 25.058594 9.664062 25.507812 8.648438 26.0625 7.957031 C 26.488281 7.84375 26.929688 7.777344 27.378906 7.757812 L 27.378906 10.613281 C 26.464844 10.628906 25.582031 10.726562 24.757812 10.890625 Z M 20.839844 14.199219 C 20.847656 14.199219 20.855469 14.199219 20.863281 14.199219 C 21 14.199219 21.113281 14.089844 21.125 13.949219 C 21.152344 13.613281 21.203125 13.28125 21.277344 12.960938 C 21.941406 12.382812 22.914062 11.917969 24.066406 11.605469 C 24.046875 11.710938 24.03125 11.8125 24.011719 11.917969 C 23.988281 12.066406 24.085938 12.207031 24.230469 12.230469 C 24.246094 12.234375 24.257812 12.234375 24.273438 12.234375 C 24.398438 12.234375 24.511719 12.140625 24.53125 12.007812 C 24.5625 11.824219 24.59375 11.644531 24.628906 11.46875 C 25.480469 11.285156 26.410156 11.175781 27.378906 11.160156 L 27.378906 11.558594 C 27.378906 11.710938 27.496094 11.832031 27.640625 11.832031 C 27.789062 11.832031 27.90625 11.710938 27.90625 11.558594 L 27.90625 11.160156 C 28.851562 11.175781 29.765625 11.28125 30.605469 11.460938 C 30.640625 11.636719 30.671875 11.820312 30.703125 12.007812 C 30.722656 12.140625 30.835938 12.234375 30.960938 12.234375 C 30.976562 12.234375 30.992188 12.234375 31.003906 12.230469 C 31.148438 12.207031 31.246094 12.066406 31.222656 11.917969 C 31.203125 11.808594 31.183594 11.699219 31.164062 11.59375 C 32.34375 11.90625 33.335938 12.375 34.007812 12.964844 C 34.0625 13.203125 34.105469 13.449219 34.136719 13.699219 C 34.152344 13.851562 34.28125 13.957031 34.425781 13.9375 C 34.570312 13.921875 34.675781 13.785156 34.65625 13.636719 C 34.296875 10.582031 32.140625 8.152344 29.367188 7.429688 C 29.367188 7.429688 29.363281 7.429688 29.363281 7.429688 C 29.355469 7.425781 29.351562 7.425781 29.34375 7.425781 C 29.285156 7.410156 29.222656 7.394531 29.160156 7.378906 C 29.15625 7.378906 29.152344 7.378906 29.148438 7.375 C 29.011719 7.34375 28.871094 7.320312 28.730469 7.296875 C 28.726562 7.296875 28.722656 7.292969 28.714844 7.292969 C 28.648438 7.285156 28.582031 7.273438 28.515625 7.265625 C 28.511719 7.265625 28.507812 7.265625 28.507812 7.265625 C 28.371094 7.246094 28.234375 7.234375 28.09375 7.222656 C 28.078125 7.222656 28.066406 7.222656 28.050781 7.222656 C 27.996094 7.21875 27.945312 7.214844 27.894531 7.214844 C 27.875 7.214844 27.859375 7.210938 27.839844 7.210938 C 27.773438 7.210938 27.707031 7.207031 27.640625 7.207031 C 27.628906 7.207031 27.617188 7.210938 27.601562 7.210938 C 27.597656 7.210938 27.59375 7.207031 27.59375 7.207031 C 27.011719 7.207031 26.433594 7.28125 25.871094 7.429688 C 25.839844 7.4375 25.808594 7.453125 25.785156 7.46875 C 23.359375 8.164062 21.421875 10.179688 20.792969 12.726562 C 20.789062 12.742188 20.785156 12.753906 20.785156 12.769531 C 20.695312 13.136719 20.632812 13.515625 20.601562 13.902344 C 20.589844 14.054688 20.695312 14.183594 20.839844 14.199219 " fill-opacity="1" fill-rule="nonzero"/></g><g fill="rgb(94.898987%, 79.60968%, 7.449341%)" fill-opacity="1"><g transform="translate(5.339986, 35.719832)"><g><path d="M 5.15625 -6.421875 L 3.390625 -6.421875 L 3.390625 0 L 1.96875 0 L 1.96875 -6.421875 L 0.203125 -6.421875 L 0.203125 -7.65625 L 5.15625 -7.65625 Z M 5.15625 -6.421875 "/></g></g></g><g fill="rgb(94.898987%, 79.60968%, 7.449341%)" fill-opacity="1"><g transform="translate(10.910399, 35.719832)"><g><path d="M 4.28125 0 L 2.3125 -2.765625 L 2.3125 0 L 0.921875 0 L 0.921875 -7.65625 L 3.046875 -7.65625 C 4.867188 -7.65625 5.78125 -6.84375 5.78125 -5.21875 C 5.78125 -4.851562 5.71875 -4.492188 5.59375 -4.140625 C 5.476562 -3.796875 5.285156 -3.488281 5.015625 -3.21875 C 4.753906 -2.945312 4.421875 -2.757812 4.015625 -2.65625 L 5.984375 0 Z M 2.90625 -3.453125 C 3.207031 -3.453125 3.46875 -3.523438 3.6875 -3.671875 C 3.914062 -3.828125 4.085938 -4.023438 4.203125 -4.265625 C 4.316406 -4.515625 4.375 -4.785156 4.375 -5.078125 C 4.375 -5.585938 4.253906 -5.960938 4.015625 -6.203125 C 3.785156 -6.441406 3.398438 -6.5625 2.859375 -6.5625 L 2.3125 -6.5625 L 2.3125 -3.453125 Z M 2.90625 -3.453125 "/></g></g></g><g fill="rgb(94.898987%, 79.60968%, 7.449341%)" fill-opacity="1"><g transform="translate(17.46963, 35.719832)"><g><path d="M 4.5 -1.109375 L 1.75 -1.109375 L 1.34375 0 L -0.1875 0 L 3.046875 -7.78125 L 3.15625 -7.78125 L 6.421875 0 L 4.921875 0 Z M 4.09375 -2.171875 L 3.28125 -4.265625 L 3.09375 -4.875 L 2.921875 -4.265625 L 2.15625 -2.171875 Z M 4.09375 -2.171875 "/></g></g></g><g fill="rgb(94.898987%, 79.60968%, 7.449341%)" fill-opacity="1"><g transform="translate(23.918994, 35.719832)"><g><path d="M 6.140625 -7.65625 L 3.109375 0.03125 L 2.9375 0.03125 L -0.109375 -7.65625 L 1.421875 -7.65625 L 2.625 -4.28125 L 3.046875 -3 L 3.46875 -4.28125 L 4.640625 -7.65625 Z M 6.140625 -7.65625 "/></g></g></g><g fill="rgb(94.898987%, 79.60968%, 7.449341%)" fill-opacity="1"><g transform="translate(30.1706, 35.719832)"><g><path d="M 5.109375 -1.234375 L 5.109375 0 L 0.890625 0 L 0.890625 -7.65625 L 4.890625 -7.65625 L 4.890625 -6.453125 L 2.265625 -6.453125 L 2.265625 -4.671875 L 4.34375 -4.671875 L 4.34375 -3.5 L 2.265625 -3.5 L 2.265625 -1.234375 Z M 5.109375 -1.234375 "/></g></g></g><g fill="rgb(94.898987%, 79.60968%, 7.449341%)" fill-opacity="1"><g transform="translate(35.949765, 35.719832)"><g><path d="M 4.609375 -1.203125 L 4.609375 0 L 0.921875 0 L 0.921875 -7.65625 L 2.3125 -7.65625 L 2.3125 -1.203125 Z M 4.609375 -1.203125 "/></g></g></g><g fill="rgb(6.269836%, 32.548523%, 71.759033%)" fill-opacity="1"><g transform="translate(40.837958, 35.719832)"><g><path d="M 2.21875 0 L 1.421875 0 L 1.421875 -6.9375 L 0.703125 -6.96875 L 0.703125 -7.6875 L 2.21875 -7.6875 Z M 2.21875 0 "/></g></g></g><g fill="rgb(6.269836%, 32.548523%, 71.759033%)" fill-opacity="1"><g transform="translate(44.123105, 35.719832)"><g><path d="M 5.3125 -5.5625 L 5.3125 -2.03125 C 5.3125 -1.289062 5.082031 -0.742188 4.625 -0.390625 C 4.175781 -0.046875 3.632812 0.125 3 0.125 C 2.375 0.125 1.832031 -0.046875 1.375 -0.390625 C 0.914062 -0.742188 0.6875 -1.289062 0.6875 -2.03125 L 0.6875 -5.5625 C 0.6875 -6.320312 0.894531 -6.894531 1.3125 -7.28125 C 1.726562 -7.664062 2.296875 -7.859375 3.015625 -7.859375 C 3.742188 -7.859375 4.304688 -7.65625 4.703125 -7.25 C 5.109375 -6.84375 5.3125 -6.28125 5.3125 -5.5625 Z M 4.515625 -2.125 L 4.515625 -5.515625 C 4.515625 -6.015625 4.382812 -6.394531 4.125 -6.65625 C 3.863281 -6.925781 3.488281 -7.0625 3 -7.0625 C 1.988281 -7.0625 1.484375 -6.546875 1.484375 -5.515625 L 1.484375 -2.09375 C 1.484375 -1.625 1.617188 -1.265625 1.890625 -1.015625 C 2.171875 -0.773438 2.539062 -0.65625 3 -0.65625 C 3.457031 -0.65625 3.820312 -0.773438 4.09375 -1.015625 C 4.375 -1.265625 4.515625 -1.632812 4.515625 -2.125 Z M 4.515625 -2.125 "/></g></g></g></svg>