<svg xmlns="http://www.w3.org/2000/svg" xmlns:xlink="http://www.w3.org/1999/xlink" width="275" zoomAndPan="magnify" viewBox="0 0 206.25 56.249996" height="75" preserveAspectRatio="xMidYMid meet" version="1.0"><defs><g/><clipPath id="id1"><path d="M 0.988281 0 L 204.523438 0 L 204.523438 55.511719 L 0.988281 55.511719 Z M 0.988281 0 " clip-rule="nonzero"/></clipPath><clipPath id="id2"><path d="M 26 5.550781 L 60.683594 5.550781 L 60.683594 24.792969 L 26 24.792969 Z M 26 5.550781 " clip-rule="nonzero"/></clipPath></defs><g clip-path="url(#id1)"><path fill="rgb(100%, 100%, 100%)" d="M 0.988281 0 L 205.261719 0 L 205.261719 62.910156 L 0.988281 62.910156 Z M 0.988281 0 " fill-opacity="1" fill-rule="nonzero"/><path fill="rgb(100%, 100%, 100%)" d="M 0.988281 0 L 204.523438 0 L 204.523438 55.511719 L 0.988281 55.511719 Z M 0.988281 0 " fill-opacity="1" fill-rule="nonzero"/><path fill="rgb(100%, 100%, 100%)" d="M 0.988281 0 L 204.523438 0 L 204.523438 55.511719 L 0.988281 55.511719 Z M 0.988281 0 " fill-opacity="1" fill-rule="nonzero"/><path fill="rgb(100%, 100%, 100%)" d="M 0.988281 0 L 204.523438 0 L 204.523438 55.511719 L 0.988281 55.511719 Z M 0.988281 0 " fill-opacity="1" fill-rule="nonzero"/></g><g clip-path="url(#id2)"><path fill="rgb(1.959229%, 5.099487%, 9.408569%)" d="M 58.457031 11.46875 C 59.40625 11.839844 60.6875 11.839844 60.6875 12.867188 C 60.6875 15.289062 50.496094 16.730469 50.117188 16.730469 L 46.753906 23.949219 C 46.515625 24.507812 46.183594 24.648438 45.804688 24.695312 L 44.714844 24.789062 L 44.714844 19.757812 L 42.582031 17.894531 C 42.34375 17.894531 40.96875 18.128906 38.125 18.128906 C 34.808594 18.128906 33.90625 17.988281 33.671875 17.988281 L 33.292969 19.570312 C 33.246094 19.851562 32.4375 19.992188 32.296875 19.804688 L 30.589844 17.570312 C 30.257812 17.570312 29.40625 17.476562 29.40625 17.195312 C 29.40625 16.824219 29.546875 16.6875 29.738281 16.59375 L 26.136719 13.285156 C 25.898438 13.054688 26.753906 12.585938 27.507812 12.960938 L 31.015625 14.589844 L 30.78125 11.886719 L 31.585938 11.75 C 31.871094 11.703125 32.488281 12.121094 32.675781 12.308594 L 35.140625 14.914062 L 39.40625 14.125 L 37.414062 12.121094 L 28.078125 6.347656 L 28.882812 5.742188 C 28.882812 5.742188 29.074219 5.554688 29.738281 5.554688 L 48.269531 12.632812 L 54.050781 11.5625 C 54.289062 11.515625 55.285156 10.957031 56.46875 10.957031 C 57.75 10.957031 57.75 11.191406 58.460938 11.46875 " fill-opacity="1" fill-rule="nonzero"/></g><g fill="rgb(94.898987%, 79.60968%, 7.449341%)" fill-opacity="1"><g transform="translate(49.007086, 42.627273)"><g><path d="M 13.328125 -16.59375 L 8.75 -16.59375 L 8.75 0 L 5.078125 0 L 5.078125 -16.59375 L 0.515625 -16.59375 L 0.515625 -19.796875 L 13.328125 -19.796875 Z M 13.328125 -16.59375 "/></g></g></g><g fill="rgb(94.898987%, 79.60968%, 7.449341%)" fill-opacity="1"><g transform="translate(63.407717, 42.627273)"><g><path d="M 11.078125 0 L 6 -7.15625 L 6 0 L 2.390625 0 L 2.390625 -19.796875 L 7.890625 -19.796875 C 12.585938 -19.796875 14.9375 -17.695312 14.9375 -13.5 C 14.9375 -12.5625 14.785156 -11.640625 14.484375 -10.734375 C 14.179688 -9.828125 13.6875 -9.019531 13 -8.3125 C 12.3125 -7.613281 11.4375 -7.132812 10.375 -6.875 L 15.484375 0 Z M 7.5 -8.953125 C 8.300781 -8.953125 8.988281 -9.140625 9.5625 -9.515625 C 10.132812 -9.898438 10.566406 -10.410156 10.859375 -11.046875 C 11.160156 -11.691406 11.3125 -12.394531 11.3125 -13.15625 C 11.3125 -14.457031 11.007812 -15.414062 10.40625 -16.03125 C 9.800781 -16.644531 8.800781 -16.953125 7.40625 -16.953125 L 6 -16.953125 L 6 -8.953125 Z M 7.5 -8.953125 "/></g></g></g><g fill="rgb(94.898987%, 79.60968%, 7.449341%)" fill-opacity="1"><g transform="translate(80.364644, 42.627273)"><g><path d="M 11.625 -2.875 L 4.546875 -2.875 L 3.5 0 L -0.484375 0 L 7.890625 -20.140625 L 8.1875 -20.140625 L 16.59375 0 L 12.71875 0 Z M 10.5625 -5.625 L 8.5 -11.015625 L 8.015625 -12.609375 L 7.5625 -11.015625 L 5.5625 -5.625 Z M 10.5625 -5.625 "/></g></g></g><g fill="rgb(94.898987%, 79.60968%, 7.449341%)" fill-opacity="1"><g transform="translate(97.037535, 42.627273)"><g><path d="M 15.875 -19.796875 L 8.03125 0.09375 L 7.578125 0.09375 L -0.28125 -19.796875 L 3.671875 -19.796875 L 6.796875 -11.078125 L 7.875 -7.765625 L 8.96875 -11.078125 L 11.984375 -19.796875 Z M 15.875 -19.796875 "/></g></g></g><g fill="rgb(94.898987%, 79.60968%, 7.449341%)" fill-opacity="1"><g transform="translate(113.199172, 42.627273)"><g><path d="M 13.203125 -3.203125 L 13.203125 0 L 2.296875 0 L 2.296875 -19.796875 L 12.640625 -19.796875 L 12.640625 -16.703125 L 5.859375 -16.703125 L 5.859375 -12.078125 L 11.25 -12.078125 L 11.25 -9.0625 L 5.859375 -9.0625 L 5.859375 -3.203125 Z M 13.203125 -3.203125 "/></g></g></g><g fill="rgb(94.898987%, 79.60968%, 7.449341%)" fill-opacity="1"><g transform="translate(128.139461, 42.627273)"><g><path d="M 11.90625 -3.125 L 11.90625 0 L 2.390625 0 L 2.390625 -19.796875 L 6 -19.796875 L 6 -3.125 Z M 11.90625 -3.125 "/></g></g></g><g fill="rgb(6.269836%, 32.548523%, 71.759033%)" fill-opacity="1"><g transform="translate(140.782266, 43.035658)"><g><path d="M 5.734375 0 L 3.6875 0 L 3.6875 -17.9375 L 1.8125 -18 L 1.8125 -19.875 L 5.734375 -19.875 Z M 5.734375 0 "/></g></g></g><g fill="rgb(6.269836%, 32.548523%, 71.759033%)" fill-opacity="1"><g transform="translate(149.271924, 43.035658)"><g><path d="M 13.71875 -14.359375 L 13.71875 -5.25 C 13.71875 -3.34375 13.132812 -1.9375 11.96875 -1.03125 C 10.800781 -0.132812 9.40625 0.3125 7.78125 0.3125 C 6.15625 0.3125 4.75 -0.132812 3.5625 -1.03125 C 2.375 -1.9375 1.78125 -3.34375 1.78125 -5.25 L 1.78125 -14.390625 C 1.78125 -16.335938 2.316406 -17.8125 3.390625 -18.8125 C 4.460938 -19.820312 5.9375 -20.328125 7.8125 -20.328125 C 9.6875 -20.328125 11.140625 -19.796875 12.171875 -18.734375 C 13.203125 -17.671875 13.71875 -16.210938 13.71875 -14.359375 Z M 11.671875 -5.484375 L 11.671875 -14.25 C 11.671875 -15.5625 11.332031 -16.554688 10.65625 -17.234375 C 9.988281 -17.910156 9.019531 -18.25 7.75 -18.25 C 5.132812 -18.25 3.828125 -16.914062 3.828125 -14.25 L 3.828125 -5.421875 C 3.828125 -4.210938 4.1875 -3.289062 4.90625 -2.65625 C 5.625 -2.019531 6.570312 -1.703125 7.75 -1.703125 C 8.925781 -1.703125 9.875 -2.019531 10.59375 -2.65625 C 11.3125 -3.289062 11.671875 -4.234375 11.671875 -5.484375 Z M 11.671875 -5.484375 "/></g></g></g></svg>